<?xml version="1.0" encoding="UTF-8" standalone="no"?>
<!-- Created with Inkscape (http://www.inkscape.org/) -->

<svg
   xmlns:dc="http://purl.org/dc/elements/1.1/"
   xmlns:cc="http://creativecommons.org/ns#"
   xmlns:rdf="http://www.w3.org/1999/02/22-rdf-syntax-ns#"
   xmlns:svg="http://www.w3.org/2000/svg"
   xmlns="http://www.w3.org/2000/svg"
   xmlns:sodipodi="http://sodipodi.sourceforge.net/DTD/sodipodi-0.dtd"
   xmlns:inkscape="http://www.inkscape.org/namespaces/inkscape"
   width="210mm"
   height="297mm"
   viewBox="0 0 210 297"
   version="1.1"
   id="svg8"
   inkscape:version="0.92.1 r15371"
   sodipodi:docname="キチキチ.svg">
  <defs
     id="defs2">
    <clipPath
       id="clipPath4501"
       clipPathUnits="userSpaceOnUse">
      <path
         inkscape:connector-curvature="0"
         id="path4499"
         d="M 0,841.89 H 1190.551 V 0 H 0 Z" />
    </clipPath>
  </defs>
  <sodipodi:namedview
     id="base"
     pagecolor="#ffffff"
     bordercolor="#666666"
     borderopacity="1.0"
     inkscape:pageopacity="0.0"
     inkscape:pageshadow="2"
     inkscape:zoom="0.35"
     inkscape:cx="-101.42857"
     inkscape:cy="560"
     inkscape:document-units="mm"
     inkscape:current-layer="g4495"
     showgrid="false"
     inkscape:window-width="1920"
     inkscape:window-height="1017"
     inkscape:window-x="-8"
     inkscape:window-y="-8"
     inkscape:window-maximized="1" />
  <metadata
     id="metadata5">
    <rdf:RDF>
      <cc:Work
         rdf:about="">
        <dc:format>image/svg+xml</dc:format>
        <dc:type
           rdf:resource="http://purl.org/dc/dcmitype/StillImage" />
        <dc:title></dc:title>
      </cc:Work>
    </rdf:RDF>
  </metadata>
  <g
     inkscape:label="レイヤー 1"
     inkscape:groupmode="layer"
     id="layer1">
    <g
       id="g4495"
       transform="matrix(0.35277777,0,0,-0.35277777,-162.75294,289.0179)">
      <g
         id="g4497"
         clip-path="url(#clipPath4501)">
        <g
           id="g4505"
           transform="translate(218.0664,313.3564)">
          <path
             d="m 0,0 v 2.31 c -0.518,0.262 -1.027,0.511 -1.54,0.771 -0.261,1.027 -0.511,2.058 -0.771,3.088 -0.77,0.515 -1.538,1.028 -2.314,1.54 -1.206,1.741 -2.622,4.672 -3.09,6.942 h -1.533 c -0.251,2.324 -0.501,2.505 -1.547,3.847 h -0.771 c -0.256,1.038 -0.514,2.066 -0.768,3.086 -0.515,0.268 -1.031,0.515 -1.547,0.776 v 1.542 c -0.765,0.511 -1.538,1.028 -2.316,1.544 v 1.537 c -0.769,0.519 -1.534,1.031 -2.304,1.547 v 1.536 c -0.518,0.265 -1.036,0.514 -1.548,0.777 -0.514,1.542 -1.029,3.089 -1.541,4.628 -0.773,0.513 -1.547,1.025 -2.312,1.544 v 2.31 c -0.512,0.259 -1.024,0.511 -1.547,0.768 v 1.545 c -0.512,0.261 -1.024,0.51 -1.535,0.773 v 1.542 c -0.515,0.257 -1.036,0.514 -1.547,0.771 v 1.539 c -0.516,0.259 -1.028,0.519 -1.541,0.77 -0.26,1.029 -0.512,2.062 -0.769,3.087 -1.032,0.774 -2.055,1.541 -3.091,2.31 v 1.549 c -0.511,0.25 -1.023,0.511 -1.539,0.771 v 1.539 h -0.773 v 1.542 h -0.762 v 1.544 h -0.775 v 1.537 h -0.775 v 1.552 c -0.507,0.252 -1.024,0.512 -1.535,0.768 v 1.539 c -0.52,0.262 -1.038,0.514 -1.547,0.774 v 1.534 c -0.514,0.268 -1.026,0.517 -1.545,0.778 v 1.537 c -0.51,0.261 -1.025,0.515 -1.544,0.773 -1.794,3.599 -3.6,7.194 -5.393,10.793 h -1.539 c 0.501,0.88 0.797,1.763 0,3.083 -0.512,-0.252 -1.035,-0.512 -1.55,-0.769 v 0.769 h 0.773 c -0.511,0.965 0.025,0.018 -0.773,0.773 v 1.543 h -0.77 v -0.775 h -0.766 c 0.257,0.775 0.513,1.544 0.766,2.317 -0.509,0.252 -1.027,0.511 -1.545,0.77 v 1.539 c -0.511,0.255 -1.024,0.515 -1.535,0.776 v 1.534 h -0.771 v 1.543 c -0.512,0.256 -1.032,0.511 -1.544,0.768 v 1.547 c -0.768,0.514 -1.544,1.024 -2.319,1.541 v 1.541 h -0.766 V 101 h -0.769 v 2.313 c -0.511,0.261 -1.023,0.51 -1.549,0.775 -0.763,2.31 -1.536,4.62 -2.31,6.941 -0.512,0.251 -1.028,0.518 -1.54,0.768 v 2.315 H -69.4 c -1.588,3.018 -3.054,4.69 -3.086,9.25 5.674,0.026 14.511,0.382 17.741,0 0,0 0.404,-0.982 1.536,-0.77 v 0.77 h 10.026 c 2.858,0.819 14.559,1.896 18.507,0.777 v -0.777 h 7.71 c 7.051,-2.024 16.508,-2.308 25.443,-2.308 h 27.771 v 0.773 h 2.312 v 0.765 h 16.189 c 5.161,-1.467 11.952,-1.538 18.507,-1.538 h 8.488 c 4.505,-1.213 18.126,-0.96 26.126,-0.901 -0.216,-3.609 -3.12,-6.523 -4.537,-9.124 h -0.773 v -1.545 c -0.512,-0.256 -1.029,-0.511 -1.544,-0.776 v -1.533 c -0.768,-0.522 -1.54,-1.033 -2.318,-1.545 v -1.542 c -0.509,-0.265 -1.026,-0.514 -1.538,-0.775 v -1.538 C 96.65,101.516 96.131,101.259 95.619,101 V 99.46 H 94.851 C 94.592,98.688 94.342,97.919 94.075,97.146 93.563,96.892 93.052,96.63 92.533,96.378 v -1.547 c -0.77,-0.512 -1.539,-1.027 -2.317,-1.538 -0.247,-1.03 -0.512,-2.058 -0.766,-3.083 -0.514,-0.259 -1.025,-0.514 -1.543,-0.771 -0.259,-0.768 -0.51,-1.538 -0.768,-2.311 h -0.771 c -0.517,-1.544 -1.03,-3.085 -1.544,-4.631 -0.77,-0.512 -1.539,-1.02 -2.312,-1.537 V 79.425 C 81.995,79.157 81.483,78.908 80.965,78.648 80.71,77.872 80.453,77.11 80.2,76.337 H 79.427 V 74.792 C 78.914,74.541 78.4,74.274 77.886,74.022 77.624,72.992 77.367,71.964 77.109,70.938 76.6,70.678 76.091,70.424 75.574,70.167 75.316,69.142 75.056,68.114 74.803,67.079 74.288,66.83 73.771,66.572 73.256,66.307 73.002,65.545 72.739,64.771 72.482,63.998 H 71.717 C 71.455,62.976 71.205,61.95 70.943,60.912 70.43,60.659 69.918,60.4 69.405,60.148 V 58.604 L 67.858,57.061 V 55.523 H 67.091 V 53.979 H 66.317 V 52.43 C 65.803,52.176 65.288,51.918 64.773,51.661 V 50.12 L 63.234,48.58 C 62.976,47.542 62.72,46.522 62.456,45.497 61.944,45.234 61.436,44.983 60.92,44.724 60.659,43.693 60.408,42.668 60.149,41.638 59.376,41.123 58.607,40.609 57.838,40.093 V 38.549 C 57.319,38.302 56.803,38.037 56.286,37.78 56.037,36.753 55.778,35.725 55.525,34.702 54.749,34.178 53.981,33.667 53.208,33.155 v -1.539 c -0.52,-0.262 -1.029,-0.513 -1.542,-0.773 V 29.298 C 51.152,29.047 50.641,28.787 50.125,28.53 49.613,26.983 49.091,25.446 48.578,23.902 47.805,23.389 47.04,22.872 46.267,22.36 v -1.544 c -0.51,-0.252 -1.019,-0.511 -1.539,-0.768 V 17.729 C 44.21,17.476 43.695,17.216 43.185,16.964 V 15.425 C 42.67,15.166 42.151,14.906 41.64,14.651 V 13.107 H 40.869 V 11.563 C 40.096,11.055 39.327,10.538 38.56,10.026 V 8.479 C 38.042,8.22 37.533,7.968 37.013,7.709 V 6.169 C 36.498,5.91 35.986,5.65 35.475,5.391 35.213,4.622 34.957,3.854 34.701,3.081 H 33.934 C 33.674,2.058 33.412,1.023 33.165,0 32.127,-0.779 31.104,-1.545 30.074,-2.311 v -1.548 c -0.768,-0.515 -1.545,-1.029 -2.312,-1.539 v -1.545 h -0.77 C 25.54,-8.68 23.767,-9.819 23.133,-12.342 h -2.312 v 0.774 c -0.773,-0.257 -1.542,-0.514 -2.306,-0.774 h -2.318 v 0.774 c -1.452,0.225 -1.544,-0.774 -1.544,-0.774 H 11.57 v 0.774 C 10.285,-11.825 8.996,-12.082 7.708,-12.342 7.456,-11.058 7.197,-9.77 6.94,-8.485 H 6.173 v 2.315 c -1.029,0.772 -2.062,1.542 -3.085,2.311 v 1.548 C 2.058,-1.545 1.034,-0.779 0,0 m 4.632,-16.193 c 6.398,0.036 15.783,1.087 20.809,-0.774 0.778,1.028 1.551,2.056 2.321,3.088 h 0.767 v 1.537 c 0.777,0.517 1.545,1.038 2.316,1.547 v 1.536 c 0.514,0.265 1.032,0.52 1.545,0.774 v 2.315 c 0.775,0.512 1.544,1.023 2.311,1.542 v 1.539 c 0.512,0.257 1.024,0.512 1.547,0.778 v 1.532 c 0.515,0.267 1.026,0.519 1.538,0.779 v 1.544 c 0.513,0.255 1.032,0.514 1.541,0.766 v 1.544 h 0.769 c 0.264,0.768 0.514,1.537 0.773,2.315 0.512,0.252 1.029,0.515 1.547,0.761 v 1.549 c 0.769,0.514 1.542,1.028 2.312,1.547 v 1.537 c 0.52,0.258 1.029,0.519 1.539,0.773 0.257,1.031 0.514,2.056 0.773,3.089 0.515,0.255 1.029,0.504 1.538,0.763 v 1.541 c 0.513,0.258 1.035,0.525 1.547,0.769 v 1.55 l 1.541,1.536 c 0.259,1.038 0.513,2.062 0.772,3.089 0.77,0.514 1.546,1.025 2.311,1.546 0.259,1.026 0.518,2.054 0.776,3.079 h 0.761 c 1.127,1.44 1.875,2.45 2.321,4.634 h 1.542 c 0.259,0.77 0.51,1.539 0.771,2.304 h 0.77 v 1.544 h 0.766 v 1.545 c 0.52,0.259 1.04,0.511 1.552,0.768 v 1.545 l 1.536,1.541 v 1.545 h 0.773 v 1.539 c 0.518,0.259 1.027,0.519 1.541,0.77 v 1.547 l 1.547,1.54 v 1.541 h 0.768 v 1.542 c 0.515,0.268 1.032,0.514 1.544,0.776 v 1.544 l 1.539,1.538 v 1.543 h 0.768 v 1.544 c 0.511,0.252 1.032,0.511 1.55,0.764 v 1.552 c 0.517,0.252 1.026,0.512 1.535,0.768 v 1.539 c 0.515,0.262 1.027,0.514 1.543,0.774 v 1.534 c 0.519,0.268 1.036,0.517 1.548,0.778 0.51,1.537 1.022,3.081 1.544,4.622 0.51,0.261 1.027,0.513 1.541,0.775 v 1.538 c 0.512,0.26 1.023,0.517 1.539,0.771 v 1.547 c 0.514,0.251 1.027,0.511 1.544,0.762 v 1.553 c 0.512,0.249 1.029,0.509 1.539,0.759 0.264,1.033 0.518,2.061 0.774,3.09 0.508,0.257 1.023,0.517 1.535,0.769 v 1.541 c 0.525,0.259 1.038,0.511 1.547,0.775 v 1.542 c 0.515,0.252 1.026,0.511 1.541,0.77 0.259,1.025 0.509,2.054 0.771,3.075 0.517,0.265 1.027,0.517 1.544,0.774 v 1.543 c 0.768,0.511 1.541,1.03 2.319,1.544 v 1.539 c 0.76,0.516 1.538,1.03 2.31,1.542 v 1.539 c 0.513,0.264 1.024,0.518 1.533,0.773 v 1.544 c 0.779,0.521 1.552,1.03 2.321,1.544 0.258,1.031 0.511,2.054 0.768,3.087 h 0.776 v 1.533 c 0.511,0.265 1.02,0.52 1.539,0.776 1.025,3.598 3.361,7.072 4.381,10.669 0.776,0 0.245,0.127 1.018,0.127 0.259,0.774 0.512,1.547 0.77,2.312 h 0.777 c 0.482,1.428 -0.457,1.097 -0.777,1.547 -0.309,0.298 -3.766,0.74 -6.169,0 0,0 -0.241,-1.156 -2.315,-0.777 -2.318,0.432 -12.675,-1.312 -16.963,0 v 0.777 H 74.803 v 0.768 h -0.779 v -0.768 H 64.008 c -5.457,1.666 -12.752,1.545 -20.05,1.537 h -7.71 c -2.808,-0.857 -14.971,-2.85 -19.289,-1.537 v 0.768 h -4.62 v -0.768 H 11.57 v 0.768 H -2.311 -9.248 v 0.769 h -6.949 v 0.775 h -7.705 v 0.777 h -9.256 v 0.756 h -0.774 v -0.756 h -10.021 v -0.777 l -0.774,0.777 h -0.77 v -0.777 h -8.482 v -0.775 c -0.891,-0.183 -1.545,0.775 -1.545,0.775 -0.511,-0.26 -1.024,-0.516 -1.535,-0.775 v 0.775 h -10.797 v -0.775 c -0.771,0.259 -1.544,0.515 -2.313,0.775 0,0 -0.553,-1.146 -2.317,-0.775 v 0.775 h -0.766 v -0.775 c -2.257,-0.393 -4.139,0.315 -5.401,0.775 -0.251,-0.516 -0.514,-1.033 -0.769,-1.544 2.314,-3.853 4.629,-7.709 6.936,-11.568 v -2.31 c 0.514,-0.26 1.032,-0.516 1.545,-0.768 1.798,-4.119 3.602,-8.234 5.401,-12.342 0.511,-0.257 1.022,-0.517 1.536,-0.773 0.265,-0.768 0.515,-1.539 0.776,-2.315 h 0.769 c 0.517,-1.538 1.029,-3.085 1.541,-4.621 0.509,-0.259 1.026,-0.514 1.544,-0.771 v -1.538 l 1.544,-1.542 v -1.543 h 0.771 c 0.25,-0.773 0.511,-1.542 0.765,-2.319 0.52,-0.252 1.029,-0.512 1.549,-0.768 0.257,-1.023 0.513,-2.055 0.766,-3.081 0.518,-0.259 1.032,-0.508 1.543,-0.776 0.265,-1.024 0.509,-2.052 0.777,-3.08 0.514,-0.251 1.021,-0.518 1.539,-0.77 v -1.543 c 0.509,-0.25 1.023,-0.515 1.541,-0.766 v -1.546 l 1.542,-1.542 v -1.546 h 0.773 v -1.534 c 0.511,-0.26 1.026,-0.512 1.537,-0.774 0.262,-1.028 0.519,-2.055 0.774,-3.085 0.512,-0.26 1.03,-0.512 1.544,-0.774 0.257,-1.022 0.52,-2.058 0.771,-3.081 0.509,-0.255 1.027,-0.517 1.547,-0.77 v -1.538 c 0.511,-0.261 1.028,-0.518 1.535,-0.773 v -1.547 c 0.515,-0.257 1.027,-0.512 1.55,-0.773 v -2.31 c 0.762,-0.515 1.535,-1.025 2.315,-1.54 v -1.547 c 0.509,-0.251 1.021,-0.511 1.533,-0.77 v -1.539 c 0.773,-0.514 1.542,-1.031 2.317,-1.545 v -1.541 c 0.509,-0.257 1.032,-0.515 1.542,-0.769 0.512,-1.544 1.026,-3.089 1.536,-4.633 0.52,-0.252 1.032,-0.511 1.547,-0.765 0.517,-1.539 1.028,-3.086 1.54,-4.628 0.511,-0.263 1.03,-0.512 1.539,-0.777 0.262,-1.019 0.519,-2.052 0.774,-3.083 1.035,-0.764 2.058,-1.537 3.08,-2.31 v -1.539 c 0.524,-0.262 1.038,-0.512 1.552,-0.774 0.251,-0.776 0.514,-1.544 0.765,-2.312 h 0.769 v -1.55 c 0.778,-0.511 1.551,-1.022 2.316,-1.534 0.516,-1.539 1.032,-3.088 1.547,-4.628 0.512,-0.254 1.021,-0.515 1.539,-0.773 V 10.026 C -10.284,9.77 -9.761,9.507 -9.248,9.248 V 7.709 C -8.737,7.457 -8.225,7.197 -7.715,6.93 -7.2,5.391 -6.687,3.854 -6.163,2.31 h 0.765 C -5.137,1.544 -4.883,0.766 -4.625,0 c 0.776,-0.512 1.544,-1.025 2.314,-1.545 V -3.859 C -1.54,-4.374 -0.773,-4.888 0,-5.398 v -1.545 h 0.768 v -1.542 h 0.779 v -2.31 c 0.947,-2.045 2.491,-2.414 3.085,-5.398"
             style="fill:#231916;fill-opacity:1;fill-rule:evenodd;stroke:none"
             id="path4507"
             inkscape:connector-curvature="0" />
        </g>
        <g
           id="g4509"
           transform="translate(177.6201,363.416)">
          <path
             d="m 0,0 c 3.08,-0.257 6.162,-0.514 9.247,-0.768 7.647,-0.347 16.737,0.281 23.135,0.768 2.38,-1.586 5.905,1.316 10.803,0 V -0.768 C 45.232,-0.514 47.29,-0.257 49.349,0 H 64.768 V 0.771 C 65.856,0.898 64.474,0.2 65.539,0 h 8.488 V 0.771 C 74.538,0.512 75.053,0.257 75.563,0 h 0.776 V 0.771 C 77.104,0.512 77.877,0.257 78.65,0 85.176,-0.44 93.41,0.728 98.699,-0.768 h 21.589 v -0.781 c 3.858,-0.251 7.707,-0.512 11.568,-0.764 v -1.551 h 0.776 v -7.706 c 0.509,-0.249 1.019,-0.509 1.536,-0.766 -0.256,-1.03 -0.517,-2.059 -0.769,-3.092 0.513,-0.26 1.026,-0.51 1.542,-0.767 v -4.628 h 0.772 v -3.081 h 0.766 v -3.088 h 0.769 v -6.16 c 1.839,-6.188 2.786,-14.59 4.635,-20.827 v -7.707 c 1.803,-6.281 2.039,-14.581 3.848,-20.829 0.259,-4.368 0.52,-8.736 0.776,-13.109 2.372,-8.238 2.968,-18.025 5.397,-26.218 v -5.396 h 0.769 v -5.394 h 0.778 v -5.401 h 0.765 v -3.078 h 0.776 c 0.248,-3.6 0.512,-7.201 0.774,-10.797 h 0.76 v -7.72 h 0.779 v -5.395 h 0.77 v -9.251 h 0.766 v -5.394 h 0.773 v -3.86 h 0.771 c 0.258,-4.884 0.514,-9.767 0.769,-14.657 3.96,-13.616 2.972,-31.748 6.94,-45.486 0.263,-4.885 0.519,-9.762 0.773,-14.647 1.719,-5.943 2.945,-20.642 1.538,-24.683 1.035,-0.769 2.06,-1.542 3.089,-2.318 v -0.766 c 1.127,0.542 1.275,0.688 3.082,0.766 v 5.406 h -0.767 v 0.771 c 0.255,0.511 0.514,1.023 0.767,1.544 h -0.767 v 4.625 h -0.769 c 0.251,0.512 0.515,1.021 0.769,1.539 h -0.769 c -0.26,4.115 -0.517,8.229 -0.773,12.33 h -0.773 v 7.716 h -0.771 v 6.95 h -0.767 v 6.161 h -0.773 v 3.09 h -0.778 l 0.778,0.766 v 0.776 h -0.778 v 7.709 h -0.769 v 5.394 h -0.769 v 6.173 h -0.773 v 3.855 h -0.771 v 6.175 h -0.765 v 3.85 h -0.771 v 7.709 h -0.778 v 5.401 h -0.769 v 5.396 h -0.765 c -0.266,5.652 -0.517,11.311 -0.774,16.96 h -0.767 v 5.395 h -0.78 v 6.175 h -0.769 v 5.393 h -0.771 v 3.86 h -0.773 v 5.396 h -0.766 v 5.405 h -0.77 c -0.262,3.337 -0.518,6.674 -0.779,10.023 -1.947,6.144 -2.713,14.761 -4.622,20.819 -0.509,6.164 -1.028,12.334 -1.541,18.503 -2.328,7.503 -2.38,17.868 -4.632,25.444 v 6.944 c -2.012,6.395 -2.65,15.01 -4.619,21.592 v 5.388 h -0.774 v 1.549 h -0.775 v 0.769 h 0.775 c -0.277,1.067 -0.442,-0.265 -0.775,0.776 v 3.083 h -0.77 v 2.314 h -0.769 c -0.515,4.376 -1.024,8.738 -1.545,13.107 0.769,0.265 1.545,0.516 2.314,0.775 0.532,-0.303 0.019,-1.084 1.545,-0.775 v 0.775 h 0.774 v -0.775 h 0.771 c 0,0 0.382,0.812 1.538,0.775 0.515,-0.259 1.025,-0.51 1.542,-0.775 v 0.775 h 4.625 c 0.307,4.522 1.521,9.374 -1.545,12.333 -0.51,0.773 -1.022,1.546 -1.536,2.317 -6.195,-0.322 -16.931,0 -25.445,0 h -10.8 v 0.768 h -10.028 v 0.774 H 86.357 v 0.775 H 72.482 v 0.761 h -0.77 c -1.078,0.014 -1.233,-1.025 -3.086,-0.761 -1.08,0.141 0.319,0.847 -0.768,0.761 C 55.542,14.48 42.387,13.879 28.527,13.879 H 12.333 c -5.679,1.598 -27.478,1.591 -33.157,0 H -32.39 v 0.775 h -10.8 v -0.775 c -1.549,-0.356 -2.307,0.775 -2.307,0.775 -1.031,-0.264 -2.059,-0.518 -3.09,-0.775 V 4.618 h 0.774 C -47.556,3.084 -47.302,1.542 -47.041,0 h 0.766 v -0.768 c 7.131,-1.285 12.757,0.337 19.279,1.539 v -1.539 h -0.767 v -6.94 h -0.773 v -6.943 c -3.168,-10.961 -4.522,-23.165 -7.713,-33.937 -0.256,-4.106 -0.515,-8.213 -0.767,-12.329 h -0.777 v -4.63 h -0.768 v -4.62 h -0.77 v -5.399 c -2.38,-7.987 -3.68,-18.073 -6.166,-26.223 -0.27,-3.089 -0.52,-6.169 -0.778,-9.256 -1.491,-4.98 -2.394,-11.235 -3.848,-16.193 v -6.161 h -0.775 v -3.092 h -0.772 c -0.515,-2.826 -1.024,-5.648 -1.542,-8.477 h -0.773 v -4.631 h -0.774 v -3.081 h -0.764 v -3.856 h -0.769 v -4.628 h -0.773 v -3.859 c -1.566,-4.995 -2.219,-12.01 -3.855,-16.96 v -3.083 h -0.768 v -6.173 h -0.779 v -3.08 h -0.765 v -3.087 h -0.777 c -0.254,-2.572 -0.512,-5.15 -0.765,-7.714 h -0.78 v -6.161 c -1.655,-5.602 -2.18,-13.674 -3.858,-19.288 v -5.395 h -0.762 v -2.313 h -0.776 v -4.623 h -0.774 v -5.399 h -0.759 c -0.262,-4.117 -0.527,-8.236 -0.774,-12.337 -1.544,-6.683 -3.085,-13.367 -4.627,-20.055 h 2.31 v -1.539 c 1.026,0.261 2.053,0.51 3.091,0.776 0.084,5.341 1.082,8.425 2.309,12.328 0.252,3.084 0.517,6.173 0.762,9.256 h 0.778 v 3.089 h 0.772 c 0.256,4.88 0.512,9.772 0.77,14.651 h 0.771 v 2.311 h 0.767 c 0.268,3.345 0.518,6.683 0.78,10.026 2.086,7.013 2.489,16.819 4.622,23.905 0.26,3.09 0.516,6.169 0.77,9.258 h 0.774 v 1.531 h 0.761 v 3.86 h 0.782 v 5.399 h 0.773 v 3.857 h 0.769 c 0.253,2.315 0.515,4.626 0.764,6.935 h 0.774 v 5.404 h 0.773 v 3.857 h 0.774 c 0.508,4.1 1.027,8.22 1.54,12.334 h 0.775 v 6.172 h 0.763 v 1.537 h 0.773 v 3.094 h 0.774 v 3.078 h 0.772 v 3.851 h 0.766 v 5.4 h 0.778 v 3.856 h 0.768 v 3.852 h 0.771 v 3.084 h 0.768 c 0.261,3.091 0.511,6.172 0.773,9.26 2.902,9.469 3.979,21.492 6.938,30.84 0.26,3.089 0.519,6.173 0.768,9.262 h 0.776 v 4.62 h 0.769 v 5.399 h 0.776 v 6.169 h 0.768 c 0.898,2.785 0.226,4.254 0,6.169 h 0.776 v 2.311 h 0.774 v 3.856 h 0.762 v 3.854 h 0.774 v 3.86 h 0.773 v 2.316 h 0.767 c 0.259,2.824 0.518,5.655 0.771,8.476 1.954,6.336 3.303,15.696 3.088,23.908 C -17.347,-0.166 -3.862,-0.955 0,0"
             style="fill:#231916;fill-opacity:1;fill-rule:evenodd;stroke:none"
             id="path4511"
             inkscape:connector-curvature="0" />
        </g>
        <g
           id="g4513"
           transform="translate(177.6201,363.416)">
          <path
             d="m 0,0 c 3.08,-0.257 6.162,-0.514 9.247,-0.768 7.647,-0.347 16.737,0.281 23.135,0.768 2.38,-1.586 5.905,1.316 10.803,0 V -0.768 C 45.232,-0.514 47.29,-0.257 49.349,0 H 64.768 V 0.771 C 65.856,0.898 64.474,0.2 65.539,0 h 8.488 V 0.771 C 74.538,0.512 75.053,0.257 75.563,0 h 0.776 V 0.771 C 77.104,0.512 77.877,0.257 78.65,0 85.176,-0.44 93.41,0.728 98.699,-0.768 h 21.589 v -0.781 c 3.858,-0.251 7.707,-0.512 11.568,-0.764 v -1.551 h 0.776 v -7.706 c 0.509,-0.249 1.019,-0.509 1.536,-0.766 -0.256,-1.03 -0.517,-2.059 -0.769,-3.092 0.513,-0.26 1.026,-0.51 1.542,-0.767 v -4.628 h 0.772 v -3.081 h 0.766 v -3.088 h 0.769 v -6.16 c 1.839,-6.188 2.786,-14.59 4.635,-20.827 v -7.707 c 1.803,-6.281 2.039,-14.581 3.848,-20.829 0.259,-4.368 0.52,-8.736 0.776,-13.109 2.372,-8.238 2.968,-18.025 5.397,-26.218 v -5.396 h 0.769 v -5.394 h 0.778 v -5.401 h 0.765 v -3.078 h 0.776 c 0.248,-3.6 0.512,-7.201 0.774,-10.797 h 0.76 v -7.72 h 0.779 v -5.395 h 0.77 v -9.251 h 0.766 v -5.394 h 0.773 v -3.86 h 0.771 c 0.258,-4.884 0.514,-9.767 0.769,-14.657 3.96,-13.616 2.972,-31.748 6.94,-45.486 0.263,-4.885 0.519,-9.762 0.773,-14.647 1.719,-5.943 2.945,-20.642 1.538,-24.683 1.035,-0.769 2.06,-1.542 3.089,-2.318 v -0.766 c 1.127,0.542 1.275,0.688 3.082,0.766 v 5.406 h -0.767 v 0.771 c 0.255,0.511 0.514,1.023 0.767,1.544 h -0.767 v 4.625 h -0.769 c 0.251,0.512 0.515,1.021 0.769,1.539 h -0.769 c -0.26,4.115 -0.517,8.229 -0.773,12.33 h -0.773 v 7.716 h -0.771 v 6.95 h -0.767 v 6.161 h -0.773 v 3.09 h -0.778 l 0.778,0.766 v 0.776 h -0.778 v 7.709 h -0.769 v 5.394 h -0.769 v 6.173 h -0.773 v 3.855 h -0.771 v 6.175 h -0.765 v 3.85 h -0.771 v 7.709 h -0.778 v 5.401 h -0.769 v 5.396 h -0.765 c -0.266,5.652 -0.517,11.311 -0.774,16.96 h -0.767 v 5.395 h -0.78 v 6.175 h -0.769 v 5.393 h -0.771 v 3.86 h -0.773 v 5.396 h -0.766 v 5.405 h -0.77 c -0.262,3.337 -0.518,6.674 -0.779,10.023 -1.947,6.144 -2.713,14.761 -4.622,20.819 -0.509,6.164 -1.028,12.334 -1.541,18.503 -2.328,7.503 -2.38,17.868 -4.632,25.444 v 6.944 c -2.012,6.395 -2.65,15.01 -4.619,21.592 v 5.388 h -0.774 v 1.549 h -0.775 v 0.769 h 0.775 c -0.277,1.067 -0.442,-0.265 -0.775,0.776 v 3.083 h -0.77 v 2.314 h -0.769 c -0.515,4.376 -1.024,8.738 -1.545,13.107 0.769,0.265 1.545,0.516 2.314,0.775 0.532,-0.303 0.019,-1.084 1.545,-0.775 v 0.775 h 0.774 v -0.775 h 0.771 c 0,0 0.382,0.812 1.538,0.775 0.515,-0.259 1.025,-0.51 1.542,-0.775 v 0.775 h 4.625 c 0.307,4.522 1.521,9.374 -1.545,12.333 -0.51,0.773 -1.022,1.546 -1.536,2.317 -6.195,-0.322 -16.931,0 -25.445,0 h -10.8 v 0.768 h -10.028 v 0.774 H 86.357 v 0.775 H 72.482 v 0.761 h -0.77 c -1.078,0.014 -1.233,-1.025 -3.086,-0.761 -1.08,0.141 0.319,0.847 -0.768,0.761 C 55.542,14.48 42.387,13.879 28.527,13.879 H 12.333 c -5.679,1.598 -27.478,1.591 -33.157,0 H -32.39 v 0.775 h -10.8 v -0.775 c -1.549,-0.356 -2.307,0.775 -2.307,0.775 -1.031,-0.264 -2.059,-0.518 -3.09,-0.775 V 4.618 h 0.774 C -47.556,3.084 -47.302,1.542 -47.041,0 h 0.766 v -0.768 c 7.131,-1.285 12.757,0.337 19.279,1.539 v -1.539 h -0.767 v -6.94 h -0.773 v -6.943 c -3.168,-10.961 -4.522,-23.165 -7.713,-33.937 -0.256,-4.106 -0.515,-8.213 -0.767,-12.329 h -0.777 v -4.63 h -0.768 v -4.62 h -0.77 v -5.399 c -2.38,-7.987 -3.68,-18.073 -6.166,-26.223 -0.27,-3.089 -0.52,-6.169 -0.778,-9.256 -1.491,-4.98 -2.394,-11.235 -3.848,-16.193 v -6.161 h -0.775 v -3.092 h -0.772 c -0.515,-2.826 -1.024,-5.648 -1.542,-8.477 h -0.773 v -4.631 h -0.774 v -3.081 h -0.764 v -3.856 h -0.769 v -4.628 h -0.773 v -3.859 c -1.566,-4.995 -2.219,-12.01 -3.855,-16.96 v -3.083 h -0.768 v -6.173 h -0.779 v -3.08 h -0.765 v -3.087 h -0.777 c -0.254,-2.572 -0.512,-5.15 -0.765,-7.714 h -0.78 v -6.161 c -1.655,-5.602 -2.18,-13.674 -3.858,-19.288 v -5.395 h -0.762 v -2.313 h -0.776 v -4.623 h -0.774 v -5.399 h -0.759 c -0.262,-4.117 -0.527,-8.236 -0.774,-12.337 -1.544,-6.683 -3.085,-13.367 -4.627,-20.055 h 2.31 v -1.539 c 1.026,0.261 2.053,0.51 3.091,0.776 0.084,5.341 1.082,8.425 2.309,12.328 0.252,3.084 0.517,6.173 0.762,9.256 h 0.778 v 3.089 h 0.772 c 0.256,4.88 0.512,9.772 0.77,14.651 h 0.771 v 2.311 h 0.767 c 0.268,3.345 0.518,6.683 0.78,10.026 2.086,7.013 2.489,16.819 4.622,23.905 0.26,3.09 0.516,6.169 0.77,9.258 h 0.774 v 1.531 h 0.761 v 3.86 h 0.782 v 5.399 h 0.773 v 3.857 h 0.769 c 0.253,2.315 0.515,4.626 0.764,6.935 h 0.774 v 5.404 h 0.773 v 3.857 h 0.774 c 0.508,4.1 1.027,8.22 1.54,12.334 h 0.775 v 6.172 h 0.763 v 1.537 h 0.773 v 3.094 h 0.774 v 3.078 h 0.772 v 3.851 h 0.766 v 5.4 h 0.778 v 3.856 h 0.768 v 3.852 h 0.771 v 3.084 h 0.768 c 0.261,3.091 0.511,6.172 0.773,9.26 2.902,9.469 3.979,21.492 6.938,30.84 0.26,3.089 0.519,6.173 0.768,9.262 h 0.776 v 4.62 h 0.769 v 5.399 h 0.776 v 6.169 h 0.768 c 0.898,2.785 0.226,4.254 0,6.169 h 0.776 v 2.311 h 0.774 v 3.856 h 0.762 v 3.854 h 0.774 v 3.86 h 0.773 v 2.316 h 0.767 c 0.259,2.824 0.518,5.655 0.771,8.476 1.954,6.336 3.303,15.696 3.088,23.908 C -17.347,-0.166 -3.862,-0.955 0,0 Z"
             style="fill:none;stroke:#231916;stroke-width:1.329;stroke-linecap:round;stroke-linejoin:round;stroke-miterlimit:4;stroke-dasharray:none;stroke-opacity:1"
             id="path4515"
             inkscape:connector-curvature="0" />
        </g>
        <g
           id="g4517"
           transform="translate(231.9316,236.7266)">
          <path
             d="m 0,0 v 3.079 h 0.773 v 3.857 h 0.768 c 0.262,1.282 0.515,2.569 0.773,3.851 H 3.085 C 2.8,13.401 3.08,13.279 0.773,13.876 0.52,13.105 0.256,12.332 0,11.566 -0.513,11.299 -1.03,11.039 -1.545,10.787 V 8.47 c -1.81,-4.589 -3.82,-13.879 -2.307,-19.281 v -6.16 h 0.769 c 1.029,-3.09 2.053,-6.166 3.083,-9.252 0.52,-0.254 1.029,-0.51 1.541,-0.778 0.262,-1.022 0.515,-2.041 0.773,-3.078 0.515,-0.255 1.03,-0.514 1.54,-0.766 v -2.318 h 0.773 v -1.541 h 0.776 v -3.087 h 0.762 c -0.25,-2.823 -0.51,-5.66 -0.762,-8.484 H 4.627 v -3.084 C 4.119,-49.613 3.6,-49.868 3.085,-50.13 v -2.309 c -0.511,-0.26 -1.029,-0.521 -1.544,-0.78 v -0.765 -0.774 H 0.773 c 0.256,-0.77 0.517,-1.536 0.768,-2.309 2.028,0.085 2.622,0.3 3.862,0.773 0.252,1.018 0.512,2.053 0.762,3.075 h 0.773 c 0.264,1.808 0.521,3.606 0.779,5.406 h 0.767 v 4.626 h 0.769 c 0.654,1.859 0.83,7.04 0,9.243 H 8.484 c -0.257,1.036 -0.513,2.061 -0.767,3.099 H 6.938 v 2.308 c -0.514,0.254 -1.023,0.514 -1.535,0.767 v 1.547 c -0.512,0.257 -1.033,0.509 -1.549,0.769 -0.254,1.298 -0.51,2.564 -0.769,3.862 -0.511,0.254 -1.029,0.506 -1.544,0.766 v 2.309 H 0.773 c -1.391,3.471 -1.539,7.619 -1.539,12.344 V 0 Z"
             style="fill:#231916;fill-opacity:1;fill-rule:evenodd;stroke:none"
             id="path4519"
             inkscape:connector-curvature="0" />
        </g>
        <g
           id="g4521"
           transform="translate(316.0068,144.9707)">
          <path
             d="m 0,0 c -0.212,0.011 -0.421,0.011 -0.634,0.021 -0.192,0.851 -0.384,1.7 -0.58,2.552 -0.212,0.01 -0.422,0.012 -0.635,0.026 -0.178,1.061 -0.367,2.134 -0.556,3.193 -0.833,0.659 -1.659,1.317 -2.493,1.977 -0.411,0.635 -0.818,1.285 -1.229,1.928 -0.641,0.016 -1.271,0.03 -1.91,0.047 0.012,0.214 0.015,0.424 0.018,0.638 -0.423,0.008 -0.849,0.021 -1.274,0.03 0.01,0.209 0.01,0.428 0.019,0.636 -4.019,0.312 -8.048,0.627 -12.072,0.933 -1.841,0.457 -6.558,0.016 -9.362,-0.76 -0.073,-0.588 -0.147,-1.172 -0.221,-1.757 -0.21,0.002 -0.421,0.002 -0.631,0.006 -0.017,-0.628 -0.031,-1.268 -0.052,-1.9 -0.207,0 -0.421,10e-4 -0.63,0.013 -0.029,-1.062 -0.056,-2.122 -0.074,-3.176 -0.216,0 -0.433,0 -0.638,0.015 -0.02,-0.565 -0.035,-1.133 -0.048,-1.699 2.851,0 10.557,0.607 13.327,-0.325 0,-0.215 -0.006,-0.428 -0.01,-0.638 1.262,-0.244 2.538,-0.493 3.806,-0.734 0.195,-0.636 0.391,-1.28 0.577,-1.926 0.427,-0.214 0.848,-0.434 1.268,-0.663 -0.013,-0.42 -0.029,-0.847 -0.034,-1.267 0.213,-0.01 0.42,-0.01 0.636,-0.02 0.366,-0.974 1.512,-9.497 1,-10.841 -0.209,0 -0.422,0.003 -0.634,0.007 -0.006,-0.42 -0.022,-0.847 -0.033,-1.266 -0.21,0 -0.423,0.004 -0.63,0.004 -0.029,-1.05 -0.057,-2.112 -0.077,-3.173 -0.434,-0.195 -0.862,-0.401 -1.286,-0.602 -0.592,-0.908 -0.514,-2.503 -1.354,-3.147 -0.428,0.004 -0.852,0.016 -1.275,0.032 -1.767,-1.254 -0.662,-2.149 -3.88,-2.457 -0.011,-0.422 -0.017,-0.848 -0.031,-1.27 -4.08,-0.631 -5.589,-2.57 -8.373,-4.251 -0.857,-0.19 -1.712,-0.385 -2.566,-0.575 -0.224,-0.42 -0.442,-0.838 -0.666,-1.255 -1.065,-0.184 -2.124,-0.375 -3.187,-0.551 -0.233,-0.428 -0.454,-0.843 -0.677,-1.26 -1.92,-0.596 -3.847,-1.181 -5.775,-1.767 -0.001,-0.007 -0.001,-0.015 -0.007,-0.021 -0.256,-2.392 -0.515,-4.785 -0.771,-7.181 -0.588,-1.606 -1.166,-3.22 -1.749,-4.828 0.107,-0.005 0.215,-0.008 0.327,-0.013 5.337,1.355 10.676,2.702 16.013,4.065 0.003,0.213 0.011,0.425 0.011,0.632 1.286,0.396 2.57,0.785 3.854,1.185 0.004,0.207 0.008,0.42 0.014,0.633 0.849,0.189 1.706,0.387 2.56,0.571 0.218,0.41 0.442,0.838 0.663,1.26 0.422,-0.014 0.848,-0.021 1.277,-0.035 0.223,0.418 0.441,0.841 0.665,1.259 0.855,0.192 1.709,0.377 2.56,0.578 0.222,0.419 0.449,0.826 0.67,1.252 0.423,-0.013 0.844,-0.014 1.274,-0.031 0.006,0.21 0.007,0.423 0.015,0.638 0.422,-0.013 0.85,-0.028 1.271,-0.031 0.429,0.618 0.878,1.245 1.319,1.874 0.423,-0.008 0.844,-0.018 1.264,-0.036 0.662,0.833 1.321,1.666 1.975,2.506 0.425,0.193 0.858,0.398 1.292,0.599 0.007,0.422 0.021,0.848 0.028,1.278 0.869,0.608 1.734,1.226 2.586,1.84 0.463,1.267 0.919,2.524 1.378,3.791 0.423,0.198 0.855,0.395 1.284,0.6 0,0.422 0.017,0.845 0.029,1.278 0.211,-0.008 0.425,-0.013 0.634,-0.02 0.475,2.111 0.954,4.222 1.435,6.33 0.211,-0.002 0.421,-0.005 0.633,-0.018 0.039,1.698 0.082,3.4 0.123,5.087 0.208,-0.005 0.421,-0.008 0.635,-0.008 C 0.264,-6.79 0.131,-3.39 0,0"
             style="fill:#231916;fill-opacity:1;fill-rule:nonzero;stroke:none"
             id="path4523"
             inkscape:connector-curvature="0" />
        </g>
        <g
           id="g4525"
           transform="translate(273.1338,102.0332)">
          <path
             d="m 0,0 c 0.211,-0.003 0.426,-0.016 0.64,-0.016 0.044,1.693 0.082,3.395 0.121,5.084 0.214,0 0.421,-0.008 0.634,-0.008 0.239,1.041 0.469,2.098 0.707,3.141 0.014,0.146 0.032,0.296 0.045,0.442 0.213,0 0.423,-0.013 0.634,-0.017 0.034,1.062 0.052,2.116 0.077,3.181 0.213,0 0.43,0 0.644,-0.011 0.015,0.634 0.027,1.267 0.051,1.909 0.205,-0.014 0.422,-0.014 0.638,-0.02 0.018,1.062 0.046,2.119 0.068,3.183 0.218,0 0.423,-0.007 0.631,-0.013 0.028,1.054 0.058,2.12 0.079,3.182 0.212,-0.018 0.425,-0.018 0.634,-0.018 0.025,0.846 0.049,1.695 0.071,2.539 0.205,-0.003 0.421,-0.008 0.64,-0.019 0.018,0.845 0.036,1.704 0.057,2.547 0.213,0 0.423,-0.008 0.64,-0.008 0.04,1.907 0.087,3.809 0.137,5.719 0.206,0 0.42,-0.007 0.633,-0.015 0.018,0.631 0.034,1.27 0.052,1.916 0.208,-0.015 0.421,-0.015 0.632,-0.023 0.256,1.689 0.511,3.382 0.762,5.074 0.214,-0.007 0.419,-0.013 0.631,-0.019 0.024,0.856 0.043,1.699 0.067,2.548 0.213,-10e-4 0.427,-0.011 0.643,-0.011 0.021,0.844 0.039,1.695 0.06,2.541 0.207,-0.005 0.421,-0.02 0.63,-0.021 0.024,0.848 0.042,1.694 0.07,2.55 0.206,-0.006 0.421,-0.006 0.627,-0.02 0.008,0.287 0.015,0.571 0.024,0.853 -0.259,0 -0.49,0.002 -0.666,0.018 0.712,2.734 1.414,5.476 2.107,8.216 0.254,0.094 0.553,0.18 0.852,0.26 0.191,1.529 0.382,3.055 0.575,4.581 1.032,3.019 2.426,5.838 2.78,9.482 -1.011,0.412 -1.5,0.595 -3.165,0.713 -0.92,-0.682 -4.972,0.12 -7.633,0.188 -7.844,0.198 -15.695,0.383 -23.539,0.584 0,-0.215 -0.009,-0.422 -0.014,-0.637 -3.819,0.094 -7.636,0.188 -11.452,0.279 -0.004,-0.213 -0.005,-0.419 -0.017,-0.639 -1.008,-0.173 -3.02,1.31 -5.071,0.768 0,-0.212 -0.014,-0.428 -0.014,-0.641 -1.481,0.044 -2.97,0.078 -4.451,0.109 -0.01,-0.214 -0.01,-0.421 -0.017,-0.638 -0.21,0.008 -0.422,0.008 -0.641,0.018 -0.644,0.475 0.26,0.858 -0.619,0.652 0,-0.206 -0.005,-0.426 -0.012,-0.631 -0.849,0.016 -1.699,0.043 -2.545,0.059 -0.01,-0.214 -0.01,-0.423 -0.02,-0.639 -4.233,0.108 -8.478,0.207 -12.719,0.312 0,-0.208 -0.014,-0.418 -0.014,-0.632 -3.386,0.086 -6.786,0.167 -10.173,0.253 -0.007,-0.216 -0.016,-0.435 -0.019,-0.643 -2.968,0.07 -5.936,0.15 -8.906,0.218 -6.563,-1.773 -10.945,-0.411 -18.463,-0.182 -0.166,-4.876 0.795,-9.432 1.586,-13.401 -0.237,-0.841 -0.477,-1.687 -0.71,-2.527 0.217,-0.009 0.431,-0.009 0.641,-0.022 -0.037,-1.483 -0.072,-2.967 -0.11,-4.45 0.214,-0.01 0.423,-0.01 0.638,-0.016 -0.081,-2.965 -0.147,-5.942 -0.221,-8.911 1.779,-6.541 0.536,-13.557 2.079,-19.142 -0.087,-3.393 -0.164,-6.781 -0.249,-10.18 0.212,-0.008 0.425,-0.008 0.634,-0.008 -0.038,-1.697 -0.081,-3.395 -0.128,-5.095 0.219,0 0.428,0 0.639,-0.013 -0.037,-1.697 -0.086,-3.394 -0.125,-5.081 0.213,-0.011 0.424,-0.017 0.638,-0.022 0.401,-1.509 -0.774,-3.466 -0.728,-3.802 0.205,0 0.422,-0.013 0.634,-0.013 -0.019,-0.849 -0.046,-1.7 -0.065,-2.545 0.214,-0.009 0.429,-0.012 0.638,-0.022 0.312,-4.464 0.626,-8.921 0.945,-13.385 5.498,-1.152 14.391,-2.016 20.354,-0.493 3.821,-0.096 7.632,-0.193 11.448,-0.283 0.008,0.202 0.008,0.422 0.021,0.625 0.627,-0.226 1.256,-0.449 1.894,-0.674 9.195,1.728 21.541,0.739 32.461,0.477 4.463,0.101 8.927,0.197 13.376,0.305 0.237,3.577 1.809,5.075 2.735,7.57 0.029,1.066 0.051,2.12 0.081,3.185 0.205,-0.006 0.423,-0.015 0.633,-0.022 0.457,1.265 0.913,2.533 1.367,3.787 -0.331,0.691 0.034,-0.325 -0.352,1.704 0.426,-0.008 -0.029,0.213 0.398,0.203 0.099,0.282 0.201,0.564 0.306,0.845 C -0.524,-3.806 -0.63,-3.8 -0.73,-3.796 -0.49,-2.536 -0.241,-1.273 0,0"
             style="fill:#231916;fill-opacity:1;fill-rule:nonzero;stroke:none"
             id="path4527"
             inkscape:connector-curvature="0" />
        </g>
        <path
           d="m 513.136,154.755 h -13.842 v -18.529 h 13.842 z m 0,20.316 h -13.842 v -17.748 h 13.842 z M 489.247,154.755 H 476.41 v -18.529 h 12.837 z m 0,20.316 H 476.41 v -17.748 h 12.837 z m 10.047,-59.834 h 7.702 c 5.805,6.475 7.145,7.368 7.926,7.368 1.005,0 2.232,-0.893 7.368,-5.134 2.231,-1.899 3.125,-2.903 3.125,-3.684 0,-0.781 -0.335,-1.116 -1.451,-1.116 h -24.67 V 92.02 h 12.056 c 6.362,6.697 7.703,7.589 8.484,7.589 1.004,0 2.232,-0.892 7.59,-5.358 2.345,-1.896 3.237,-2.901 3.237,-3.683 0,-0.781 -0.335,-1.116 -1.45,-1.116 h -66.643 c -2.233,0 -4.354,-0.223 -7.255,-0.67 l -1.229,4.13 c 3.237,-0.67 5.694,-0.892 8.149,-0.892 h 27.014 v 20.651 h -16.298 c -2.121,0 -4.242,-0.224 -7.032,-0.67 l -1.229,4.13 c 3.126,-0.67 5.583,-0.894 7.927,-0.894 h 16.632 v 18.42 H 476.41 v -2.792 c 0,-2.79 -1.897,-3.906 -6.363,-3.906 -3.124,0 -4.465,1.116 -4.465,3.906 0,3.573 0.67,11.722 0.67,32.038 0,6.81 -0.111,10.27 -0.67,20.54 5.358,-2.457 6.251,-2.792 11.609,-5.804 h 35.275 c 3.683,4.242 4.577,4.911 5.47,4.911 1.117,0 2.121,-0.669 6.585,-4.242 2.01,-1.674 2.68,-2.455 2.68,-3.348 0,-1.23 -1.005,-2.122 -4.018,-3.908 v -6.475 c 0,-17.078 0.446,-28.8 0.446,-32.706 0,-2.903 -1.786,-4.131 -6.363,-4.131 -2.902,0 -4.13,1.005 -4.13,3.572 v 2.345 h -13.842 z m -49.452,2.457 c 5.471,1.898 10.828,3.907 15.07,5.693 0.559,0.222 1.116,-0.894 0.67,-1.229 -7.703,-6.921 -18.865,-14.064 -31.032,-19.758 -0.112,-3.572 -0.782,-4.799 -2.344,-4.799 -1.676,0 -3.016,2.456 -7.591,13.395 2.567,0.335 6.028,1.116 9.935,2.121 1.674,0.446 3.46,0.893 5.246,1.451 v 28.689 h -4.91 c -1.9,0 -3.684,-0.224 -6.14,-0.67 l -1.229,4.131 c 2.902,-0.67 5.023,-0.895 7.144,-0.895 h 5.135 v 26.456 h -6.252 c -1.896,0 -3.684,-0.222 -6.139,-0.669 l -1.228,4.131 c 2.791,-0.67 4.913,-0.893 7.032,-0.893 h 15.74 c 3.908,5.134 5.246,6.027 6.028,6.027 1.005,0 2.233,-0.893 6.474,-4.241 1.787,-1.451 2.68,-2.457 2.68,-3.238 0,-0.782 -0.335,-1.117 -1.451,-1.117 h -12.838 v -26.456 h 0.893 c 3.125,4.577 4.465,5.471 5.247,5.471 1.004,0 2.121,-0.894 5.581,-3.906 1.34,-1.229 2.233,-2.235 2.233,-3.016 0,-0.781 -0.334,-1.115 -1.451,-1.115 h -12.503 z"
           style="fill:#231916;fill-opacity:1;fill-rule:nonzero;stroke:none"
           id="path4529"
           inkscape:connector-curvature="0" />
        <g
           id="g4531"
           transform="translate(625.8936,152.8564)">
          <path
             d="m 0,0 c -2.791,0 -3.237,0.447 -5.806,7.032 -1.563,4.02 -3.796,7.145 -7.702,10.271 -0.446,0.334 -0.111,1.005 0.446,0.892 C -0.67,16.521 5.691,12.391 5.691,6.027 5.691,2.567 3.125,0 0,0 m -4.466,-24.559 c -2.344,0 -3.462,0.894 -4.577,3.909 -2.344,5.915 -4.13,8.372 -9.935,13.059 -0.446,0.335 -0.112,0.894 0.447,0.894 13.06,-1.117 19.759,-4.912 19.759,-11.498 0,-3.685 -2.344,-6.364 -5.694,-6.364 m 28.354,-5.358 c 3.014,6.587 4.019,8.149 4.912,8.149 1.116,0 2.568,-0.67 7.813,-3.906 2.009,-1.228 2.68,-2.01 2.68,-2.903 0,-0.67 -0.447,-1.116 -1.228,-1.228 l -15.963,-3.237 c 0.112,-20.428 0.446,-25.897 0.446,-31.814 0,-3.349 -2.345,-4.688 -6.586,-4.688 -3.348,0 -4.91,1.116 -4.91,4.018 0,5.582 0.111,13.73 0.222,30.364 l -28.799,-5.693 c -2.792,-0.558 -5.137,-1.228 -7.816,-2.345 l -1.897,4.018 c 3.683,0 6.252,0.335 8.595,0.781 l 29.917,5.918 c 0.112,10.269 0.112,23.441 0.112,40.744 0,10.269 -0.223,16.855 -0.669,23.218 11.831,-1.004 14.958,-1.897 14.958,-3.684 0,-1.004 -0.67,-1.898 -3.685,-3.126 v -54.92 z m -60.727,9.043 c 0,-23.107 0.111,-39.628 0.111,-44.764 0,-3.236 -2.12,-4.352 -6.251,-4.352 -3.127,0 -4.355,1.004 -4.355,3.46 0,5.358 1.116,27.572 1.228,45.991 -6.811,-12.056 -10.72,-16.522 -19.765,-25.005 -0.446,-0.335 -1.563,0.781 -1.228,1.228 9.603,14.288 15.298,26.567 19.541,41.972 h -10.161 c -1.787,0 -3.574,-0.223 -6.03,-0.67 l -1.229,4.131 c 2.903,-0.67 5.025,-0.894 7.259,-0.894 h 11.166 V 17.86 c -4.801,-0.669 -10.049,-1.115 -16.638,-1.45 -0.558,0 -1.004,1.227 -0.447,1.338 10.051,2.791 19.207,6.364 26.018,9.936 3.238,1.675 5.806,3.349 7.815,5.023 6.138,-4.242 9.823,-7.702 9.823,-8.93 0,-0.781 -0.67,-1.451 -2.234,-1.451 -0.781,0 -1.785,0.224 -3.125,0.67 -4.129,-1.34 -7.813,-2.457 -11.498,-3.35 V 0.223 h 3.796 c 4.131,5.358 5.136,6.363 6.14,6.363 1.227,0 2.457,-1.116 6.474,-4.688 1.451,-1.227 2.233,-2.345 2.233,-3.127 0,-0.781 -0.335,-1.115 -1.451,-1.115 h -17.192 v -8.707 c 10.941,-2.678 16.857,-7.144 16.857,-12.838 0,-3.125 -2.456,-5.804 -5.247,-5.804 -2.121,0 -2.902,0.892 -3.907,4.019 -2.009,5.805 -4.465,9.934 -7.703,12.726 z"
             style="fill:#231916;fill-opacity:1;fill-rule:nonzero;stroke:none"
             id="path4533"
             inkscape:connector-curvature="0" />
        </g>
        <path
           d="m 757.949,139.797 h -15.63 v -11.608 h 15.63 z m -15.628,2.566 h 15.629 v 10.827 h -15.629 z m 0,13.396 h 15.629 v 10.493 h -15.629 z m -25.785,12.838 c -1.896,0 -3.014,0.781 -4.466,3.795 -2.008,4.353 -4.241,7.032 -8.147,9.712 -0.446,0.334 0,0.894 0.557,0.894 10.492,-0.448 16.856,-3.909 16.856,-9.268 0,-2.79 -2.12,-5.133 -4.8,-5.133 m -0.781,-29.135 c -1.34,-2.792 -1.563,-3.796 -1.563,-5.805 0,-3.349 2.009,-6.252 2.009,-9.601 0,-4.353 -2.344,-7.033 -5.805,-7.033 -3.013,0 -5.246,2.234 -5.246,5.47 0,3.35 1.563,6.363 1.563,9.713 0,3.906 -0.893,4.799 -9.043,8.148 -0.558,0.224 -0.335,1.452 0.224,1.34 5.024,-0.781 5.805,-0.893 7.256,-0.893 2.79,0 4.353,0.781 6.362,3.571 3.351,4.355 8.708,12.614 14.511,22.214 0.335,0.447 1.452,-0.223 1.228,-0.781 -3.794,-8.819 -7.7,-17.525 -11.496,-26.343 m -6.698,12.166 c -1.786,0 -2.679,0.67 -4.13,3.572 -2.791,5.248 -4.912,7.927 -8.038,9.712 -0.447,0.224 -0.112,0.893 0.446,0.893 11.387,-0.782 16.634,-3.572 16.634,-8.819 0,-3.012 -2.122,-5.358 -4.912,-5.358 m 33.264,-27.907 c 0,-1.004 -0.335,-1.897 -1.005,-2.455 10.495,-1.339 11.611,-1.563 11.611,-3.014 0,-1.006 -1.005,-1.787 -3.014,-2.68 v -6.028 h 28.912 c 5.357,6.698 6.696,7.591 7.478,7.591 1.007,0 2.234,-0.893 7.48,-5.245 2.344,-2.011 3.237,-3.015 3.237,-3.796 0,-0.781 -0.335,-1.116 -1.452,-1.116 h -45.655 c 0.111,-10.494 0.446,-17.749 0.446,-20.206 0,-2.902 -1.897,-4.129 -6.361,-4.129 -3.685,0 -4.914,1.004 -4.914,4.018 0,2.009 0.335,8.037 0.335,20.317 h -34.715 c -2.345,0 -4.689,-0.224 -7.815,-0.669 l -1.228,4.129 c 3.461,-0.67 6.028,-0.894 8.597,-0.894 h 35.161 c -0.111,3.573 -0.223,7.144 -0.446,10.719 -0.67,-0.114 -1.339,-0.225 -2.12,-0.225 -3.014,0 -4.465,0.67 -4.465,3.236 0,2.569 0.446,10.942 0.446,26.791 v 5.471 c -3.125,-3.127 -6.476,-6.028 -9.823,-8.372 -0.448,-0.335 -1.116,0.335 -0.782,0.781 6.473,8.372 11.834,17.637 15.627,26.68 1.563,3.906 2.903,7.813 3.907,11.608 8.708,-3.013 12.168,-4.464 12.168,-5.693 0,-1.116 -0.893,-1.897 -4.353,-2.455 -1.785,-3.237 -3.682,-6.363 -5.692,-9.265 h 16.744 c 1.674,3.794 3.014,6.921 3.795,9.823 0.781,2.343 1.339,4.464 1.785,6.809 9.043,-2.902 11.945,-4.131 11.945,-5.47 0,-1.228 -0.558,-1.562 -4.352,-1.897 -5.361,-5.693 -6.812,-7.033 -9.602,-9.265 h 13.843 c 4.24,5.022 5.58,5.916 6.361,5.916 1.004,0 2.235,-0.894 6.253,-4.019 1.897,-1.564 2.79,-2.567 2.79,-3.35 0,-0.781 -0.335,-1.115 -1.451,-1.115 h -24.336 v -10.493 h 7.146 c 4.018,4.801 5.357,5.693 6.138,5.693 1.005,0 2.233,-0.892 6.03,-3.907 1.786,-1.451 2.678,-2.454 2.678,-3.236 0,-0.782 -0.335,-1.117 -1.451,-1.117 h -20.541 v -10.829 h 7.592 c 3.906,4.801 5.246,5.694 6.027,5.694 1.004,0 2.233,-0.893 6.03,-4.019 1.673,-1.451 2.567,-2.344 2.567,-3.125 0,-0.781 -0.335,-1.116 -1.451,-1.116 h -20.765 v -11.61 h 10.606 c 4.576,5.582 5.915,6.474 6.696,6.474 1.005,0 2.235,-0.892 6.923,-4.577 2.12,-1.674 3.012,-2.567 3.012,-3.349 0,-0.781 -0.334,-1.115 -1.45,-1.115 h -51.127 z"
           style="fill:#231916;fill-opacity:1;fill-rule:nonzero;stroke:none"
           id="path4535"
           inkscape:connector-curvature="0" />
        <path
           d="m 914.343,125.285 h -13.284 v -12.727 h 13.284 z m 0,15.069 h -13.284 v -12.501 h 13.284 z m -22.55,-15.069 h -12.279 v -12.727 h 12.279 z m 0,15.069 h -12.279 v -12.501 h 12.279 z m 9.378,-30.364 c 0,-8.483 0.111,-16.297 0.111,-19.645 0,-3.573 -1.339,-4.8 -5.694,-4.8 -3.349,0 -4.019,0.781 -4.019,4.018 0,1.34 0.224,5.693 0.224,14.29 v 6.137 H 879.514 V 88 c 0,-3.571 -1.451,-4.799 -5.804,-4.799 -3.014,0 -4.132,0.893 -4.132,3.237 0,7.367 0.446,14.735 0.446,44.316 0,5.693 -0.112,11.498 -0.446,17.303 5.025,-2.234 5.917,-2.569 10.94,-5.135 h 32.594 c 3.575,4.242 4.467,4.912 5.361,4.912 1.116,0 1.897,-0.67 5.915,-4.243 1.674,-1.563 2.343,-2.454 2.343,-3.348 0,-1.005 -0.557,-1.564 -2.678,-3.127 v -6.921 c 0,-25.561 0.223,-31.255 0.223,-34.939 0,-3.683 -0.223,-5.023 -1.005,-6.586 -1.338,-2.79 -5.468,-4.911 -9.598,-4.911 -1.565,0 -2.011,0.446 -2.235,2.679 -0.669,4.242 -2.008,5.582 -7.366,7.255 -0.557,0.112 -0.557,1.339 0,1.339 3.795,-0.334 6.474,-0.446 8.483,-0.446 1.453,0 1.788,0.224 1.788,1.564 v 13.84 z m 6.585,59.277 c 0.111,-3.685 0.111,-6.252 0.111,-7.369 0,-2.456 -2.009,-3.683 -5.58,-3.683 -3.014,0 -4.355,0.892 -4.355,3.126 0,1.005 0.111,3.46 0.222,7.926 h -12.722 c 0.111,-3.685 0.111,-6.252 0.111,-7.369 0,-2.456 -1.9,-3.683 -5.583,-3.683 -2.902,0 -4.353,0.892 -4.353,3.126 0,1.005 0.223,3.46 0.223,7.926 h -8.596 c -2.456,0 -4.911,-0.223 -8.259,-0.67 l -1.228,4.13 c 3.795,-0.67 6.585,-0.894 9.487,-0.894 h 8.708 v 2.903 c 0,6.697 0,8.037 -0.335,11.609 10.94,-1.004 12.726,-1.451 12.726,-3.014 0,-1.004 -0.893,-1.786 -2.901,-2.567 v -8.931 h 12.722 v 3.015 c 0,5.468 0,7.479 -0.222,10.939 10.828,-1.005 12.725,-1.451 12.725,-3.014 0,-1.004 -0.892,-1.787 -2.901,-2.568 v -8.372 h 7.592 c 4.017,5.247 5.357,6.14 6.138,6.14 1.004,0 2.12,-0.893 6.138,-4.354 1.677,-1.451 2.57,-2.455 2.57,-3.236 0,-0.781 -0.335,-1.116 -1.451,-1.116 z m 6.14,-14.736 c 5.358,5.917 6.25,6.586 7.143,6.586 1.116,0 2.01,-0.669 6.812,-4.577 2.12,-1.785 2.79,-2.566 2.79,-3.461 0,-0.781 -0.447,-1.116 -1.675,-1.116 h -62.067 v -3.236 c 0,-13.285 -1.227,-24.112 -4.018,-33.712 -2.567,-8.931 -6.473,-16.856 -12.056,-24.782 -0.335,-0.446 -1.451,0.112 -1.227,0.67 3.125,8.819 5.133,16.186 6.25,25.004 1.006,7.926 1.341,16.969 1.341,29.359 0,8.038 -0.112,10.381 -0.558,15.07 5.692,-2.456 6.473,-2.791 12.054,-5.805 z m -76.244,-11.833 c -3.46,-4.577 -7.142,-8.707 -10.94,-12.39 -0.446,-0.335 -1.45,0.669 -1.115,1.116 7.033,11.274 12.502,23.442 16.074,35.162 2.123,7.033 3.573,13.843 4.243,20.094 13.173,-3.46 14.623,-4.018 14.623,-5.47 0,-1.34 -0.446,-1.675 -4.467,-2.79 -2.901,-9.488 -7.477,-18.978 -12.946,-27.685 6.585,-1.004 7.478,-1.339 7.478,-2.678 0,-0.893 -0.782,-1.563 -3.014,-2.68 V 87.665 c 0,-3.236 -1.897,-4.687 -5.917,-4.687 -3.46,0 -4.688,1.116 -4.688,4.241 0,2.903 0.669,11.721 0.669,29.358 z"
           style="fill:#231916;fill-opacity:1;fill-rule:nonzero;stroke:none"
           id="path4537"
           inkscape:connector-curvature="0" />
        <g
           id="g4539"
           transform="translate(1012.0186,154.8662)">
          <path
             d="m 0,0 c -4.133,-6.475 -8.708,-12.503 -14.289,-17.75 12.277,0.224 24.668,0.558 37.06,1.562 -2.791,4.131 -6.028,6.922 -11.276,10.16 -0.446,0.335 -0.223,1.227 0.335,1.116 17.64,-3.795 26.456,-9.265 26.456,-16.409 0,-4.019 -2.344,-6.81 -5.58,-6.81 -2.79,0 -4.241,1.451 -7.145,7.145 -0.335,0.67 -0.67,1.227 -1.005,1.897 -15.516,-3.349 -30.251,-5.47 -55.926,-8.148 -0.893,-2.79 -1.339,-3.461 -2.455,-3.461 -1.451,0 -1.898,1.228 -4.688,13.617 6.027,-0.669 9.712,-0.78 15.628,-0.78 h 4.575 c 2.009,5.917 3.572,11.833 4.914,17.861 h -11.499 c -2.455,0 -4.801,-0.224 -8.038,-0.67 l -1.227,4.13 c 4.241,-0.67 7.369,-0.893 10.605,-0.893 h 44.763 c 4.91,5.47 6.25,6.363 7.033,6.363 1.005,0 2.344,-0.893 7.255,-4.465 C 37.729,2.79 38.621,1.897 38.621,1.116 38.621,0.335 38.286,0 37.17,0 Z m 5.804,-64.633 h 26.902 c 5.58,6.921 6.92,7.814 7.701,7.814 1.004,0 2.235,-0.893 8.038,-5.47 2.568,-2.12 3.46,-3.014 3.46,-3.796 0,-0.781 -0.335,-1.116 -1.451,-1.116 h -89.19 c -2.233,0 -4.464,-0.223 -7.481,-0.67 l -1.227,4.131 c 3.795,-0.669 6.699,-0.893 9.6,-0.893 h 33.265 v 20.317 h -23.552 c -2.458,0 -4.913,-0.223 -8.15,-0.672 l -1.228,4.132 c 4.241,-0.67 7.479,-0.893 10.718,-0.893 h 22.212 v 6.475 c -0.223,4.687 -0.335,6.139 -0.67,8.037 13.284,-1.228 14.4,-2.456 14.4,-3.574 0,-1.003 -0.781,-1.785 -3.347,-2.901 v -8.037 h 18.083 c 5.024,5.693 6.364,6.586 7.145,6.586 1.004,0 2.232,-0.893 7.143,-4.689 2.12,-1.674 3.013,-2.567 3.013,-3.348 0,-0.781 -0.334,-1.116 -1.451,-1.116 H 5.804 Z m -39.407,79.591 c 0.224,-8.595 -3.236,-14.512 -8.928,-14.512 -3.351,0 -5.695,2.455 -5.695,5.917 0,2.567 0.893,4.018 3.572,5.357 5.806,3.015 7.369,5.247 8.15,12.391 0.111,0.557 1.116,0.668 1.228,0.112 0.67,-2.344 1.227,-4.577 1.451,-6.698 H -4.69 v 6.921 c 0,1.898 -0.112,4.242 -0.447,6.698 13.172,-1.228 14.4,-2.456 14.4,-3.683 0,-1.006 -1.116,-1.898 -3.572,-2.793 v -7.143 h 30.475 c 4.241,5.47 5.134,6.14 6.026,6.14 1.12,0 2.012,-0.67 7.592,-5.807 2.568,-2.341 3.237,-3.235 3.237,-4.128 0,-1.452 -1.004,-2.01 -4.464,-2.01 -1.898,0 -2.455,-0.334 -4.129,-1.563 C 41.076,7.702 39.291,6.81 35.942,5.246 35.385,5.022 34.826,5.693 35.05,6.251 c 1.451,3.46 2.344,6.25 2.901,8.707 z"
             style="fill:#231916;fill-opacity:1;fill-rule:nonzero;stroke:none"
             id="path4541"
             inkscape:connector-curvature="0" />
        </g>
        <g
           id="g4543"
           transform="translate(463.9492,227.1445)">
          <path
             d="M 0,0 H -6.119 L -21.672,22.665 -26.106,17.74 V 0 h -5.183 v 45.21 h 5.183 V 23.141 h 0.25 c 1.188,1.718 2.498,3.381 3.685,4.863 l 14.49,17.206 h 6.37 L -18.049,25.987 Z"
             style="fill:#231916;fill-opacity:1;fill-rule:nonzero;stroke:none"
             id="path4545"
             inkscape:connector-curvature="0" />
        </g>
        <path
           d="m 490.122,227.145 h -5.183 v 32.336 h 5.183 z m -2.624,38.031 c -1.997,0 -3.373,1.484 -3.373,3.382 0,1.839 1.438,3.323 3.436,3.323 2.061,0 3.373,-1.484 3.373,-3.323 0,-2.078 -1.437,-3.382 -3.436,-3.382"
           style="fill:#231916;fill-opacity:1;fill-rule:nonzero;stroke:none"
           id="path4547"
           inkscape:connector-curvature="0" />
        <g
           id="g4549"
           transform="translate(538.4639,228.332)">
          <path
             d="m 0,0 c -1.499,-0.713 -4.872,-1.841 -9.244,-1.841 -9.742,0 -16.176,6.586 -16.176,16.495 0,9.967 6.933,17.267 17.425,17.267 3.81,0 6.87,-1.069 8.183,-1.723 l -1.313,-3.974 c -1.437,0.772 -3.685,1.661 -6.995,1.661 -7.868,0 -11.99,-5.992 -11.99,-12.935 0,-7.831 4.933,-12.756 11.802,-12.756 3.373,0 5.684,0.89 7.37,1.603 z"
             style="fill:#231916;fill-opacity:1;fill-rule:nonzero;stroke:none"
             id="path4551"
             inkscape:connector-curvature="0" />
        </g>
        <g
           id="g4553"
           transform="translate(586.7544,227.1445)">
          <path
             d="m 0,0 h -5.185 v 19.104 c 0,5.282 -2,9.85 -7.873,9.85 -4,0 -8.996,-3.145 -8.996,-9.078 V 0 h -5.187 v 47.466 h 5.187 V 27.353 h 0.125 c 2.248,3.558 6.371,5.754 10.557,5.754 C -7.185,33.107 0,30.675 0,19.698 Z"
             style="fill:#231916;fill-opacity:1;fill-rule:nonzero;stroke:none"
             id="path4555"
             inkscape:connector-curvature="0" />
        </g>
        <path
           d="m 615.799,227.145 h -5.183 v 32.336 h 5.183 z m -2.624,38.031 c -1.998,0 -3.371,1.484 -3.371,3.382 0,1.839 1.434,3.323 3.433,3.323 2.061,0 3.373,-1.484 3.373,-3.323 0,-2.078 -1.436,-3.382 -3.435,-3.382"
           style="fill:#231916;fill-opacity:1;fill-rule:nonzero;stroke:none"
           id="path4557"
           inkscape:connector-curvature="0" />
        <g
           id="g4559"
           transform="translate(699.7402,227.1445)">
          <path
             d="m 0,0 h -6.122 l -15.55,22.665 -4.435,-4.925 V 0 h -5.184 v 45.21 h 5.184 V 23.141 h 0.25 c 1.187,1.718 2.499,3.381 3.684,4.863 L -7.682,45.21 h 6.369 L -18.051,25.987 Z"
             style="fill:#231916;fill-opacity:1;fill-rule:nonzero;stroke:none"
             id="path4561"
             inkscape:connector-curvature="0" />
        </g>
        <path
           d="m 725.912,227.145 h -5.185 v 32.336 h 5.185 z m -2.624,38.031 c -1.999,0 -3.372,1.484 -3.372,3.382 0,1.839 1.436,3.323 3.435,3.323 2.061,0 3.373,-1.484 3.373,-3.323 0,-2.078 -1.438,-3.382 -3.436,-3.382"
           style="fill:#231916;fill-opacity:1;fill-rule:nonzero;stroke:none"
           id="path4563"
           inkscape:connector-curvature="0" />
        <g
           id="g4565"
           transform="translate(774.2529,228.332)">
          <path
             d="m 0,0 c -1.499,-0.713 -4.871,-1.841 -9.243,-1.841 -9.743,0 -16.177,6.586 -16.177,16.495 0,9.967 6.933,17.267 17.426,17.267 3.809,0 6.87,-1.069 8.182,-1.723 l -1.312,-3.974 c -1.437,0.772 -3.685,1.661 -6.995,1.661 -7.869,0 -11.991,-5.992 -11.991,-12.935 0,-7.831 4.933,-12.756 11.804,-12.756 3.371,0 5.683,0.89 7.368,1.603 z"
             style="fill:#231916;fill-opacity:1;fill-rule:nonzero;stroke:none"
             id="path4567"
             inkscape:connector-curvature="0" />
        </g>
        <g
           id="g4569"
           transform="translate(822.5322,227.1445)">
          <path
             d="m 0,0 h -5.185 v 19.104 c 0,5.282 -1.998,9.85 -7.868,9.85 -3.997,0 -8.994,-3.145 -8.994,-9.078 V 0 h -5.184 v 47.466 h 5.184 V 27.353 h 0.125 c 2.248,3.558 6.371,5.754 10.555,5.754 C -7.183,33.107 0,30.675 0,19.698 Z"
             style="fill:#231916;fill-opacity:1;fill-rule:nonzero;stroke:none"
             id="path4571"
             inkscape:connector-curvature="0" />
        </g>
        <path
           d="m 851.575,227.145 h -5.184 v 32.336 h 5.184 z m -2.623,38.031 c -1.998,0 -3.371,1.484 -3.371,3.382 0,1.839 1.437,3.323 3.435,3.323 2.061,0 3.372,-1.484 3.372,-3.323 0,-2.078 -1.437,-3.382 -3.436,-3.382"
           style="fill:#231916;fill-opacity:1;fill-rule:nonzero;stroke:none"
           id="path4573"
           inkscape:connector-curvature="0" />
        <g
           id="g4575"
           transform="translate(927.0234,228.332)">
          <path
             d="m 0,0 c -1.499,-0.713 -4.87,-1.841 -9.243,-1.841 -9.743,0 -16.176,6.586 -16.176,16.495 0,9.967 6.933,17.267 17.425,17.267 3.81,0 6.87,-1.069 8.182,-1.723 l -1.312,-3.974 c -1.437,0.772 -3.685,1.661 -6.995,1.661 -7.869,0 -11.991,-5.992 -11.991,-12.935 0,-7.831 4.934,-12.756 11.804,-12.756 3.371,0 5.683,0.89 7.369,1.603 z"
             style="fill:#231916;fill-opacity:1;fill-rule:nonzero;stroke:none"
             id="path4577"
             inkscape:connector-curvature="0" />
        </g>
        <g
           id="g4579"
           transform="translate(965.249,243.9355)">
          <path
             d="m 0,0 c -6.433,0 -14.489,-0.89 -14.489,-7.714 0,-4.152 2.747,-5.991 5.87,-5.991 5.058,0 8.619,3.678 8.619,7.593 z m 5.121,-9.079 c 0,-2.669 0.063,-5.457 0.498,-7.712 H 0.874 l -0.5,4.153 H 0.188 c -1.751,-2.55 -5.247,-4.866 -10.056,-4.866 -6.495,0 -9.931,4.51 -9.931,9.197 0,7.773 7.12,11.986 19.736,11.925 0,2.732 0,8.901 -7.745,8.901 -2.935,0 -5.995,-0.771 -8.306,-2.314 l -1.248,3.382 c 2.747,1.722 6.557,2.729 10.367,2.729 9.618,0 12.116,-6.468 12.116,-12.876 z"
             style="fill:#231916;fill-opacity:1;fill-rule:nonzero;stroke:none"
             id="path4581"
             inkscape:connector-curvature="0" />
        </g>
        <g
           id="g4583"
           transform="translate(994.7295,259.4805)">
          <path
             d="m 0,0 c 0,4.033 0,9.315 3.748,12.934 2.247,2.076 5.183,2.907 7.869,2.907 2.186,0 3.936,-0.475 5.059,-0.948 l -0.874,-3.857 c -0.938,0.356 -2.123,0.772 -3.936,0.772 -5.371,0 -6.681,-4.749 -6.681,-9.969 V 0 h 8.242 V -3.856 H 5.185 v -28.48 H 0 v 28.48 H -4.684 V 0 Z"
             style="fill:#231916;fill-opacity:1;fill-rule:nonzero;stroke:none"
             id="path4585"
             inkscape:connector-curvature="0" />
        </g>
        <g
           id="g4587"
           transform="translate(1048.1328,246.4277)">
          <path
             d="M 0,0 C 0.062,4.391 -1.874,10.086 -8.556,10.086 -14.803,10.086 -17.55,4.449 -18.05,0 Z m 3.309,-17.92 c -1.935,-0.889 -5.495,-2.017 -10.679,-2.017 -9.931,0 -15.864,6.645 -15.864,16.318 0,10.144 5.996,17.443 15.177,17.443 10.493,0 13.178,-9.136 13.178,-14.774 0,-1.125 -0.062,-1.957 -0.125,-2.729 h -23.17 c 0.062,-8.959 5.432,-12.341 11.554,-12.341 4.246,0 6.807,0.831 8.93,1.662 z"
             style="fill:#231916;fill-opacity:1;fill-rule:nonzero;stroke:none"
             id="path4589"
             inkscape:connector-curvature="0" />
        </g>
        <path
           d="M 1133.858,47.291 H 56.692 v 425.197 h 1077.166 z"
           style="fill:none;stroke:#6bb82d;stroke-width:1;stroke-linecap:butt;stroke-linejoin:miter;stroke-miterlimit:4;stroke-dasharray:none;stroke-opacity:1"
           id="path4591"
           inkscape:connector-curvature="0" />
      </g>
    </g>
  </g>
</svg>
